<?xml version="1.0" encoding="iso-8859-1"?>
<!-- Uploaded to: SVG Repo, www.svgrepo.com, Generator: SVG Repo Mixer Tools -->
<svg fill="#000000" height="800px" width="800px" version="1.1" id="Layer_1" xmlns="http://www.w3.org/2000/svg" xmlns:xlink="http://www.w3.org/1999/xlink" 
	 viewBox="0 0 491.519 491.519" xml:space="preserve">
<g>
	<g>
		<path d="M245.757,65.685c-56.292,0-102.086,45.801-102.086,102.101c0,56.291,45.794,102.093,102.086,102.093
			c56.291,0,102.093-45.801,102.093-102.093C347.85,111.487,302.049,65.685,245.757,65.685z M271.971,239.893h-23.122V117.332
			h-29.301V95.672h52.423V239.893z"/>
	</g>
</g>
<g>
	<g>
		<path d="M397.162,128.235c-10.489-10.488-16.381-24.713-16.381-39.547c0-30.888-25.04-55.927-55.927-55.927
			c-14.835,0-29.059-5.893-39.547-16.38h-0.002c-21.84-21.842-57.251-21.842-79.092,0c-10.489,10.487-24.714,16.38-39.547,16.38
			c-30.887,0-55.927,25.039-55.927,55.927c0,14.832-5.892,29.058-16.381,39.546v0.001c-21.84,21.841-21.84,57.253,0,79.092v0.002
			c10.489,10.488,16.381,24.714,16.381,39.545c0,30.888,25.04,55.928,55.927,55.928c14.833,0,29.058,5.893,39.547,16.381
			c21.841,21.841,57.252,21.841,79.092,0h0.002c10.488-10.488,24.712-16.381,39.547-16.381c30.887,0,55.927-25.04,55.927-55.928
			c0-14.832,5.891-29.057,16.381-39.547C419.002,185.488,419.002,150.076,397.162,128.235z M245.757,285.735
			c-65.033,0-117.941-52.909-117.941-117.949c0-65.04,52.908-117.956,117.941-117.956c65.04,0,117.948,52.916,117.948,117.956
			C363.705,232.826,310.797,285.735,245.757,285.735z"/>
	</g>
</g>
<g>
	<g>
		<path d="M318.393,319.309c-8.211,1.362-15.955,5.164-21.873,11.081c-13.564,13.564-31.595,21.035-50.763,21.035
			c-19.177,0-37.2-7.471-50.756-21.035c-6.017-6.011-13.633-9.764-21.867-11.098l-62.113,134.61l53.417-8.621l28.106,46.238
			l53.215-115.329l53.216,115.329l28.104-46.238l53.418,8.621L318.393,319.309z"/>
	</g>
</g>
</svg>